<svg xmlns="http://www.w3.org/2000/svg" width="22.593" height="14.086" viewBox="0 0 22.593 14.086"><defs><style>.a{fill:#fff;}</style></defs><g transform="translate(0 -96.395)"><g transform="translate(0 96.395)"><g transform="translate(0 0)"><path class="a" d="M21.764,96.4H6.491a.829.829,0,0,0-.613.27L.216,102.88a.829.829,0,0,0,0,1.116l5.662,6.214a.829.829,0,0,0,.613.27H21.764a.828.828,0,0,0,.829-.828V97.224A.828.828,0,0,0,21.764,96.4Zm-.829,12.428H6.857L1.95,103.438l4.907-5.386H20.936v10.772Z" transform="translate(0 -96.395)"/></g></g><g transform="translate(11.6 100.344)"><g transform="translate(0 0)"><path class="a" d="M268.773,186.136a.829.829,0,0,0-1.172.007l-4.474,4.53a.829.829,0,0,0,1.179,1.165l4.474-4.53A.829.829,0,0,0,268.773,186.136Z" transform="translate(-262.887 -185.896)"/></g></g><g transform="translate(11.573 100.372)"><g transform="translate(0 0)"><path class="a" d="M268.21,191.238l-4.529-4.474a.829.829,0,0,0-1.165,1.179l4.529,4.474a.829.829,0,0,0,1.165-1.179Z" transform="translate(-262.27 -186.525)"/></g></g></g></svg>