<svg xmlns="http://www.w3.org/2000/svg" width="22" height="21.046" viewBox="0 0 22 21.046"><g transform="translate(0 -2.64)"><g transform="translate(0 2.64)"><path d="M1.32,59.685H20.68a1.32,1.32,0,0,0,0-2.64H1.32a1.32,1.32,0,1,0,0,2.64Z" transform="translate(0 -47.219)"/><path d="M45.9,9.167A3.263,3.263,0,1,0,42.633,5.9,3.267,3.267,0,0,0,45.9,9.167Z" transform="translate(-34.933 -2.64)"/><path d="M49.159,86.294A3.263,3.263,0,1,0,45.9,89.557,3.267,3.267,0,0,0,49.159,86.294Z" transform="translate(-34.932 -68.511)"/></g></g></svg>