<svg xmlns="http://www.w3.org/2000/svg" xmlns:xlink="http://www.w3.org/1999/xlink" width="341.195" height="260.376" viewBox="0 0 341.195 260.376"><defs><linearGradient id="a" x1="0.871" y1="1" x2="0.871" gradientUnits="objectBoundingBox"><stop offset="0" stop-color="gray" stop-opacity="0.251"/><stop offset="0.54" stop-color="gray" stop-opacity="0.122"/><stop offset="1" stop-color="gray" stop-opacity="0.102"/></linearGradient></defs><g transform="translate(-0.023 0.02)"><path d="M281.142,107.6c-21.495-.747-41.966-7.685-61.518-15.277s-38.911-16-59.89-20.027c-13.494-2.587-28.924-2.953-39.8,4.281-10.462,6.974-13.843,18.98-15.663,30.133-1.365,8.389-2.169,17.22,1.578,25.075,2.6,5.453,7.22,10.037,10.415,15.257,11.113,18.173,3.258,40.6-8.781,58.33-5.646,8.326-12.2,16.274-16.563,25.128s-6.377,19.014-2.564,28.054c3.783,8.967,12.793,15.689,22.554,20.422,19.821,9.631,43.175,12.365,65.962,13.922,50.422,3.451,101.116,1.956,151.671.462,18.711-.555,37.5-1.116,55.912-4.009,10.219-1.6,20.774-4.155,28.193-10.3,9.419-7.815,11.754-21.046,5.443-30.847-10.588-16.436-39.854-20.518-47.263-38.157-4.075-9.711.11-20.525,6.028-29.532,12.7-19.316,33.985-36.264,35.108-58.343.771-15.164-9.462-30.352-25.284-37.529-16.586-7.519-39.582-6.573-51.81,5.875C322.257,103.322,300.112,108.261,281.142,107.6Z" transform="translate(-86.32 -66.434)" fill="#6c63ff" opacity="0.1"/><ellipse cx="123.208" cy="9.16" rx="123.208" ry="9.16" transform="translate(69.365 232.136)" fill="#6c63ff" opacity="0.1"/><path d="M379.26,695.052s6.974-1.116,11.159,3.816c0,0-3.069,2.418-9.671-.93Z" transform="translate(-281.954 -483.425)" fill="#6c63ff"/><path d="M371.234,695s-4.447,5.487-2.265,11.574c0,0,3.627-1.455,4.022-8.848Z" transform="translate(-274.678 -483.462)" fill="#6c63ff"/><path d="M365,664.271s2.79-5.115,13.949,2.046c0,0-1.488,3.441-6.416,3.162S366.3,666.984,365,664.271Z" transform="translate(-272.43 -461.757)" fill="#6c63ff"/><path d="M350.04,666.709s-5.789-.664-6.35,12.591c0,0,3.67.761,6.277-3.431S351.5,669.326,350.04,666.709Z" transform="translate(-258.198 -464.563)" fill="#6c63ff"/><path d="M352.66,625.03s3.255-9.02,15.065-2.6c0,0-2.7,8.276-13.856,5.673Z" transform="translate(-264.189 -433.452)" fill="#6c63ff"/><path d="M341.73,585.741s6.141-9.117,17.021-.664c0,0-3.813,8.555-16.091,3.906Z" transform="translate(-256.889 -407.647)" fill="#6c63ff"/><path d="M337.81,548.17s7.164-8.369,17.951,0c0,0-6.788,7.346-17.951,2.139Z" transform="translate(-254.271 -382.912)" fill="#6c63ff"/><path d="M334.45,510.033s7.257-8.741,17.579-.465c0,0-8.183,7.718-17.579,2.511Z" transform="translate(-252.026 -357.236)" fill="#6c63ff"/><path d="M336.41,472.183s7.639-11.255,17.3-3.627c0,0-8.183,9.671-17.3,5.766Z" transform="translate(-253.336 -330.453)" fill="#6c63ff"/><path d="M341.73,434.153s8.094-11.159,17.486-2.6c0,0-9.578,9.675-17.486,4.65Z" transform="translate(-256.889 -305.352)" fill="#6c63ff"/><path d="M349.018,396.425s9.578-10.485,17.934-6.31c0,0-9.983,11.136-18.353,9.09Z" transform="translate(-261.477 -279.178)" fill="#6c63ff"/><path d="M358.364,359.16s11.066-12.833,17.483-8.555c0,0-8.143,9.963-18.266,10.96Z" transform="translate(-267.475 -252.863)" fill="#6c63ff"/><path d="M371.879,323.179s9.675-10.488,16.742-7.884c0,0-8.276,10.88-18.041,11.159Z" transform="translate(-276.157 -229.586)" fill="#6c63ff"/><path d="M386.725,287.02s10.694-10.047,15.344-8.28c0,0-7.718,11.162-15.809,10.511Z" transform="translate(-286.63 -205.31)" fill="#6c63ff"/><path d="M400.54,248.643s9.206-12,14.228-11.066c0,0-5.58,10.694-14.228,12.288Z" transform="translate(-296.167 -177.922)" fill="#6c63ff"/><path d="M413.845,208.046s8.137-9.2,12.531-9.176c0,0-6.423,12.288-12.866,12.175Z" transform="translate(-304.829 -152.105)" fill="#6c63ff"/><path d="M420.79,158.31l7.858-19.16s.4,17.32-8.858,22.713Z" transform="translate(-309.024 -112.219)" fill="#6c63ff"/><path d="M432.3,98.437s1.3-15.995.465-17.3c0,0,5.619,13.285-.521,24.364Z" transform="translate(-317.339 -73.475)" fill="#6c63ff"/><path d="M324.737,632.195s-8.15-5.052-13.427,7.307c0,0,7.253,4.812,14.384-4.155Z" transform="translate(-236.572 -440.833)" fill="#6c63ff"/><path d="M311.139,591.177s-10-4.56-14.849,8.343c0,0,7.725,5.314,15.759-5.081Z" transform="translate(-226.54 -413.598)" fill="#6c63ff"/><path d="M300.344,550.52s-7.16-8.369-17.934,0c0,0,6.788,7.346,17.934,2.139Z" transform="translate(-217.27 -384.482)" fill="#6c63ff"/><path d="M298.369,510.033s-7.253-8.741-17.579-.465c0,0,8.187,7.718,17.579,2.511Z" transform="translate(-216.188 -357.236)" fill="#6c63ff"/><path d="M303.937,468.589s-5.088-12.62-16.147-7.184c0,0,5.978,11.176,15.7,9.273Z" transform="translate(-220.863 -326.54)" fill="#6c63ff"/><path d="M310.934,428.7s-5.055-12.823-16.274-6.875c0,0,6.868,11.754,15.776,8.858Z" transform="translate(-225.451 -299.961)" fill="#6c63ff"/><path d="M330.392,380.487S328.4,366.429,319.1,365.17c0,0,1.969,14.826,10.037,17.851Z" transform="translate(-241.774 -263.174)" fill="#6c63ff"/><path d="M343.626,342.946s-.777-16.938-8.466-17.526c0,0,.259,12.856,7.6,19.927Z" transform="translate(-252.501 -236.626)" fill="#6c63ff"/><path d="M357.521,306.619s-2.295-14.085-9.631-15.809c0,0,.91,13.643,8.907,19.263Z" transform="translate(-261.003 -213.51)" fill="#6c63ff"/><path d="M379.824,270.548s-.08-14.67-4.56-16.828c0,0-2.783,13.285,3.261,18.7Z" transform="translate(-278.858 -188.738)" fill="#6c63ff"/><path d="M390.6,235.887s-.628-15.108-5.271-17.237c0,0-1.591,11.956,4.573,18.227Z" transform="translate(-285.885 -165.316)" fill="#6c63ff"/><path d="M407.571,199.618s-.03-12.288-3.341-15.168c0,0-3.3,13.461,1.611,17.642Z" transform="translate(-297.907 -142.474)" fill="#6c63ff"/><path d="M412.664,153.865l-3.222-20.455s-4.381,16.759,3.378,24.142Z" transform="translate(-301.29 -108.385)" fill="#6c63ff"/><path d="M407.212,103.087s-8.276-13.75-8.107-15.277c0,0,.88,14.411,11.292,21.588Z" transform="translate(-295.207 -77.93)" fill="#6c63ff"/><path d="M403.625,79.116S395.814,59.588,392.28,58c0,0,11.159,5.673,12,20.551Z" transform="translate(-290.65 -58.02)" fill="#6c63ff"/><path d="M412.311,157.03l-.531-.166c6.593-21.495,8.236-35.2,4.63-38.638l.385-.405C420.618,121.447,419.067,135,412.311,157.03Z" transform="translate(-303.674 -97.973)" fill="#444053"/><path d="M357.14,283.013l-.79-.279c.7-1.969,1.455-3.969,2.245-5.938,6.881-17.16,12.737-33.1,16.493-45.354l.688-.332c-3.763,12.252-9.515,28.824-16.4,46C358.585,279.068,357.835,281.054,357.14,283.013Z" transform="translate(-266.653 -173.637)" fill="#444053"/><path d="M357.535,502.013c-.106-.12-10.794-12.149-18.24-32.693a121.028,121.028,0,0,1-7.207-37.453c-.508-15.985,2.843-33.836,8.592-50.047l.624.731c-12.9,36.387-7.775,67.569-.976,86.344,7.37,20.355,17.934,32.255,18.037,32.375Z" transform="translate(-250.415 -274.294)" fill="#444053"/><path d="M245.94,735.787s-12.637-.76-11.146,8.094a2.16,2.16,0,0,0,1.123,2.275s.02-.664,1.3-.435a5.819,5.819,0,0,0,1.372.066,2.863,2.863,0,0,0,1.68-.691h0s3.55-1.468,4.932-7.273c0,0,1.023-1.265.98-1.591l-2.132.91a3.814,3.814,0,0,1,.156,2.816s-.07-2.76-.478-2.7c-.083,0-1.109.535-1.109.535s1.255,2.68.309,4.626c0,0,.359-3.3-.7-4.434l-1.5.877s1.465,2.766.472,5.025c0,0,.252-3.464-.787-4.812l-1.362,1.063s1.375,2.727.538,4.6c0,0-.11-4.032-.834-4.337a8.329,8.329,0,0,0-1.372,1.481s.943,1.993.359,3.026c0,0-.359-2.687-.664-2.7a8.94,8.94,0,0,0-1.309,2.989,6.463,6.463,0,0,1,1.02-3.168,3.556,3.556,0,0,0-1.813.94s.183-1.259,2.106-1.368a9.085,9.085,0,0,1,1.242-1.435,7.787,7.787,0,0,0-3.072.355s1.02-1.186,3.424-.664l1.328-1.1a11.461,11.461,0,0,0-3.587.036s1.229-1.049,3.949-.286l1.461-.873a13.291,13.291,0,0,0-3.427-.3,5.265,5.265,0,0,1,3.856.06l1.046-.468s-1.574-.309-2.033-.359-.488-.176-.488-.176a5.445,5.445,0,0,1,2.956.332A13.519,13.519,0,0,0,245.94,735.787Z" transform="translate(-185.386 -510.692)" fill="#6c63ff"/><path d="M135.35,748.157s-12.62-.76-11.142,8.094a2.155,2.155,0,0,0,1.119,2.275s.023-.664,1.3-.435a5.645,5.645,0,0,0,1.372.066,2.843,2.843,0,0,0,1.677-.691h0s3.554-1.468,4.935-7.273c0,0,1.02-1.265,1-1.591l-2.132.91a3.814,3.814,0,0,1,.156,2.816s-.07-2.76-.478-2.7c-.083,0-1.109.535-1.109.535s1.255,2.68.309,4.626c0,0,.359-3.3-.7-4.434l-1.5.877s1.465,2.766.472,5.025c0,0,.256-3.464-.787-4.812l-1.358,1.063s1.375,2.727.538,4.6c0,0-.11-4.032-.834-4.337a8.329,8.329,0,0,0-1.372,1.481s.943,1.993.359,3.026c0,0-.359-2.687-.664-2.7a9.011,9.011,0,0,0-1.309,2.989,6.483,6.483,0,0,1,1.023-3.168,3.574,3.574,0,0,0-1.817.94s.186-1.259,2.109-1.368a8.933,8.933,0,0,1,1.242-1.431,7.76,7.76,0,0,0-3.072.352s1.02-1.186,3.424-.664l1.328-1.1a11.46,11.46,0,0,0-3.587.037s1.229-1.049,3.949-.286l1.461-.873a13.309,13.309,0,0,0-3.427-.3,5.265,5.265,0,0,1,3.856.06l1.046-.468s-1.574-.309-2.036-.359-.485-.176-.485-.176a5.484,5.484,0,0,1,2.956.332A13.666,13.666,0,0,0,135.35,748.157Z" transform="translate(-111.529 -518.954)" fill="#6c63ff"/><path d="M196.985,777.2s-12.62-.761-11.146,8.094a2.16,2.16,0,0,0,1.123,2.275s.023-.664,1.3-.435a5.834,5.834,0,0,0,1.375.066,2.863,2.863,0,0,0,1.677-.691h0s3.55-1.468,4.932-7.273c0,0,1.023-1.265,1-1.591l-2.132.91a3.832,3.832,0,0,1,.156,2.816s-.07-2.76-.482-2.7c-.083,0-1.106.535-1.106.535s1.252,2.677.306,4.626c0,0,.359-3.3-.7-4.434l-1.5.877s1.465,2.767.472,5.025c0,0,.256-3.464-.787-4.812l-1.362,1.063s1.378,2.727.538,4.6c0,0-.11-4.032-.83-4.337a8.207,8.207,0,0,0-1.372,1.481s.943,1.993.355,3.026c0,0-.359-2.687-.664-2.7a8.94,8.94,0,0,0-1.309,2.989,6.463,6.463,0,0,1,1.02-3.168,3.557,3.557,0,0,0-1.813.94s.183-1.259,2.109-1.368a8.254,8.254,0,0,1,1.239-1.435,7.787,7.787,0,0,0-3.072.355s1.023-1.186,3.424-.648l1.328-1.1a11.46,11.46,0,0,0-3.587.037s1.232-1.049,3.949-.286l1.465-.874a13.357,13.357,0,0,0-3.417-.286,5.261,5.261,0,0,1,3.856.06l1.043-.468s-1.571-.309-2.033-.359-.485-.176-.485-.176a5.443,5.443,0,0,1,2.956.332A13.4,13.4,0,0,0,196.985,777.2Z" transform="translate(-152.692 -538.349)" fill="#6c63ff"/><ellipse cx="8.944" cy="1.511" rx="8.944" ry="1.511" transform="translate(25.499 248.635)" fill="#6c63ff" opacity="0.1"/><ellipse cx="8.944" cy="1.511" rx="8.944" ry="1.511" transform="translate(309.186 248.635)" fill="#6c63ff" opacity="0.1"/><ellipse cx="8.944" cy="1.511" rx="8.944" ry="1.511" transform="translate(223.536 257.333)" fill="#6c63ff" opacity="0.1"/><ellipse cx="8.944" cy="1.511" rx="8.944" ry="1.511" transform="translate(323.33 235.537)" fill="#6c63ff" opacity="0.1"/><ellipse cx="8.944" cy="1.511" rx="8.944" ry="1.511" transform="translate(42.905 234.593)" fill="#6c63ff" opacity="0.1"/><ellipse cx="8.944" cy="1.511" rx="8.944" ry="1.511" transform="translate(6.163 238.834)" fill="#6c63ff" opacity="0.1"/><rect width="143.258" height="213.012" rx="9.8" transform="translate(100.56 26.47)" fill="#3a3768"/><rect width="118.808" height="41.876" rx="20.938" transform="translate(113.672 44.779)" opacity="0.1"/><rect width="117.008" height="40.502" rx="10.2" transform="translate(114.436 45.596)" fill="#e6e8ec"/><rect width="23.627" height="26.25" rx="10.79" transform="translate(117.81 104.098)" opacity="0.1"/><rect width="23.627" height="26.25" rx="10.79" transform="translate(146.688 104.098)" opacity="0.1"/><rect width="23.627" height="26.25" rx="10.79" transform="translate(175.565 104.098)" opacity="0.1"/><rect width="23.627" height="26.25" rx="11.813" transform="translate(204.443 104.656)" opacity="0.1"/><rect width="23.627" height="26.25" rx="10.79" transform="translate(204.443 104.098)" fill="#6c63ff"/><rect width="23.627" height="26.25" rx="10.79" transform="translate(117.81 132.976)" opacity="0.1"/><rect width="23.627" height="26.25" rx="10.79" transform="translate(146.688 132.976)" opacity="0.1"/><rect width="23.627" height="26.25" rx="10.79" transform="translate(175.565 132.976)" opacity="0.1"/><rect width="23.627" height="26.25" rx="10.79" transform="translate(117.81 164.852)" opacity="0.1"/><rect width="23.627" height="26.25" rx="10.79" transform="translate(146.688 164.852)" opacity="0.1"/><rect width="23.627" height="26.25" rx="10.79" transform="translate(175.565 164.852)" opacity="0.1"/><rect width="23.627" height="26.25" rx="10.79" transform="translate(175.565 196.729)" opacity="0.1"/><rect width="23.627" height="26.25" rx="11.813" transform="translate(204.443 133.534)" opacity="0.1"/><rect width="23.627" height="26.25" rx="11.3" transform="translate(204.443 132.976)" fill="#6c63ff"/><rect width="23.627" height="26.25" rx="11.3" transform="translate(204.443 132.976)" opacity="0.2"/><rect width="52.504" height="26.25" rx="10.04" transform="translate(117.81 196.729)" opacity="0.1"/><rect width="25.875" height="58.13" rx="11.66" transform="translate(202.191 164.852)" opacity="0.1"/><rect width="10.342" height="1.119" transform="translate(215.848 79.024)" fill="#6c63ff"/><rect width="10.342" height="1.119" transform="translate(200.707 79.024)" fill="#6c63ff"/><rect width="10.342" height="1.119" transform="translate(185.562 79.024)" fill="#6c63ff"/><rect width="10.342" height="1.119" transform="translate(170.421 79.024)" fill="#6c63ff"/><path d="M828.568,436.479a14.092,14.092,0,0,0,0-7.174v-3.384s1.219-6.616-4.221-10.86l-3.607-3.182a13.461,13.461,0,0,0-2.61-1.847,2.66,2.66,0,0,0-.332-.05l-.106-.063a10.861,10.861,0,0,1-.79-1.661,1.538,1.538,0,0,0,1.285-.438,1.661,1.661,0,0,0,.3-.508h0c.209-.468.246-1.036.422-1.534a3.654,3.654,0,0,1,.664-1.1c-.037.06-.076.116-.11.179.511-.638,1.179-1.182,1.661-1.853a4.143,4.143,0,0,0,.262-.415c-.02.03-.047.056-.07.086a9.441,9.441,0,0,0,1.059-3.6,3.242,3.242,0,0,0,.02-1.289,4.684,4.684,0,0,0-.359-.817c-.784-1.617-.771-3.653-2.023-4.945a6.094,6.094,0,0,0-3.716-1.428,9.656,9.656,0,0,1-3.916-.966,4.13,4.13,0,0,0-1.059-.581.87.87,0,0,0-1.039.385.685.685,0,0,1-.139.282.452.452,0,0,1-.4.023l-1.79-.478.02.09h-.047l.066.282a.153.153,0,0,1,.169.1l-.289.445a4.487,4.487,0,0,1-1.614-.332.378.378,0,0,0,0,.086h-.027c-.033.5.541.834.717,1.309a1,1,0,0,1,0,.641,1.4,1.4,0,0,1-.332.511c-.634.628-1.448.5-2.179.9a.472.472,0,0,0-.266.3.216.216,0,0,0-.023.163.386.386,0,0,0,.15.186,3.318,3.318,0,0,0,.694.432c-.073.066-.143.133-.209.2a8,8,0,0,0,2.766,13.059c.027.139.047.282.067.432v.043l.02.193-2.411,1.026A1.92,1.92,0,0,1,803.5,408.2c-.561-1.159-2.544,0-2.544,0s-6.048-.452-8.3.664c0,0-3.61-1.514-4.118-1.617s-1.269-.5-1.624-.4-.814-.664-1.069-.608-.355-.5-1.169-.707-1.119.053-2.033-.857-8.339-4.5-8.339-4.5l-3.334-2.743-3.557-2.83-.063.116c-.023-.083-.047-.169-.07-.262a34.059,34.059,0,0,0-1.328-4.148c-.229-.548-.332-1.239-.641-.873-.189.219-.511-.262-1-.588a.84.84,0,0,0-1.252.365h0c-2.77,4.344-3.763,4.65-2.159,6.247,1.431,1.418,2.381,2.657,3.547,3.049l.139.043a.148.148,0,0,1-.076,0l6.762,8.084s4.879,4.244,8.236,5.606,3.1,1.77,3.1,1.77,10.169,5.151,11.744,5.051,1.272,10.558.611,12.288-1.727,14.145-1.727,14.145-1.02,2.627.05,4.444a28.064,28.064,0,0,1,.023,4.318,14.84,14.84,0,0,0-2.464,6.347,3.684,3.684,0,0,1-.04.385.9.9,0,0,1-.239.2l.226-.066a12.783,12.783,0,0,1-.664,3.049,12.393,12.393,0,0,0-.84,4.337v8.024l-.664,4.982s-.814,3.769,0,4.65a2.152,2.152,0,0,1,.445,1.548,2.883,2.883,0,0,0,.518,1.807,1.352,1.352,0,0,1,.332,1.159c-.269.873.4,10.169.4,10.169s-.2,2.561-.465,2.7.465,2.962.465,2.962-2.747,2.292-2.046,3.5l.7,1.076-.186.183-.113.116a1.082,1.082,0,0,0-.7-.133,26.766,26.766,0,0,1-2.763,2.461,30,30,0,0,1-4.61,2.189l-2.657.216h-.05s-1.272-.12-.558,1.85,7.1,1.365,7.1,1.365l3.726-.588a70.825,70.825,0,0,0,8.545-.389c.794-.176,1-.6.93-1.03h0l-.02-.02a2.656,2.656,0,0,0-.545-1.113.427.427,0,0,0-.047-.06l.12-1.362c2.82-1.624-.8-4.819-.8-4.819a33.44,33.44,0,0,1,1.873-3.567c.634-.873.634-13.743.634-13.743s.332-4.65-.541-5.726a1.936,1.936,0,0,1,.95-1.75c.628-.428,2.524-6.33,4.012-11.229l.937,5.772s-.2,2.763.405,3.57a1.375,1.375,0,0,1,.252,1.076,4.848,4.848,0,0,0,.136,2.325,1.538,1.538,0,0,0,.495.83c.541.269.575,1.229.777,1.431s1.458-.286,1.524.455a16.783,16.783,0,0,1,0,1.953l.409,11.989a7.964,7.964,0,0,0-.814,3.653,4.7,4.7,0,0,1-.488,2.145,1.1,1.1,0,0,0,.1,1.289l.116.136-.5.385a1.106,1.106,0,0,0-.312,1.365,1.073,1.073,0,0,0-.309,1.162.813.813,0,0,0,.086.189,1.887,1.887,0,0,0-1.013.5,8.3,8.3,0,0,1-1.79,1.8,34.454,34.454,0,0,0-2.853,2.444,4.1,4.1,0,0,1-1.661,1.328,2.742,2.742,0,0,1-.5.149c-1.328.272-.913,1.661.169,1.89s4.676,1.328,7.473.687a2.638,2.638,0,0,0,2.049-.286,30.1,30.1,0,0,1,3.939-1.375s1.524,0,1.73-.6a2.371,2.371,0,0,0,.086-.591l.043-.043-.04-.036a8.059,8.059,0,0,0-.1-1.352c-.04-.232-.083-.438-.123-.6-.13-.5-.372-1.159-.475-1.435a.5.5,0,0,0,.047-.07c.581-1-.385-3.361-.385-3.361a6.445,6.445,0,0,1,1.146-1.358c.541-.405,1.966-10.913,1.966-10.913s-.07-2.693.664-3.906-1.016-8.552-1.016-8.552-.747-1.684-.475-2.292-.272-2.83-.272-2.83V480.2a2.936,2.936,0,0,0-.156-.93,4.4,4.4,0,0,1-.183-2.683c.475-1.212,1.558-8.688,1.558-8.688a10.005,10.005,0,0,1,.4-5.925,5.145,5.145,0,0,1,.332-.608c.92-1.445.644-4.012.189-6.081-.066-.332-.143-.631-.219-.92-.03-.126-.063-.246-.1-.365l.146-.06a4.3,4.3,0,0,1,.047-.531,3.733,3.733,0,0,0,2.444-1.69,27.341,27.341,0,0,1,5.845-4.952c2.743-1.465,2.949-3.587,2.949-3.587-.405-.707.727-3.587.727-3.587Zm-10.81-26.446Zm1.863,31.1-2.936,3.4v-.02c-.764-1.063.711-3.437.711-3.437l2.441-5.447a3.081,3.081,0,0,1-.332,1.6c-.664.91,1.222,2.428,1.222,2.428C819.721,439.664,819.621,441.129,819.621,441.129Z" transform="translate(-536.334 -278.89)" fill="url(#a)"/><path d="M769.44,398.771l-1.6,3.112a6.311,6.311,0,0,1-1.491-.312,5.646,5.646,0,0,1-3.5-3.029,4.4,4.4,0,0,1,2.039-5.809c1.1-.6,2.129-1.292,2.956.691a34.282,34.282,0,0,1,1.3,4.122C769.327,398.273,769.44,398.771,769.44,398.771Z" transform="translate(-537.844 -281.166)" fill="#cc818c"/><path d="M911.578,440.856l-2.561,3.813s-12.1,5.772-9.787-1a15.21,15.21,0,0,0,.953-6.682v-.043a5.375,5.375,0,0,0-.95-2.71s11.793-6.038,10.036-1.91a5.685,5.685,0,0,0-.415,2.717,9.26,9.26,0,0,0,1.269,3.77A12.526,12.526,0,0,0,911.578,440.856Z" transform="translate(-629.038 -307.063)" fill="#cc818c"/><path d="M871.645,616.563s1.74,7.307,1,8.5-.664,3.882-.664,3.882-1.4,10.442-1.94,10.84a6.382,6.382,0,0,0-1.139,1.328s.956,2.365.382,3.341a.811.811,0,0,1-.382.332c-.9.379-4.211-1.3-6.1-2.325a1.076,1.076,0,0,1-.193-1.754,1.1,1.1,0,0,1,.306-1.355l.5-.385-.116-.136a1.1,1.1,0,0,1-.1-1.282,4.652,4.652,0,0,0,.482-2.129,7.8,7.8,0,0,1,.8-3.613l-.4-11.916a16.53,16.53,0,0,0,0-1.94c-.066-.734-1.305-.249-1.5-.452s-.236-1.152-.771-1.422a1.525,1.525,0,0,1-.485-.827,4.78,4.78,0,0,1-.136-2.325,1.372,1.372,0,0,0-.249-1.069c-.6-.8-.4-3.544-.4-3.544l-.923-5.739c-1.471,4.869-3.341,10.734-3.962,11.159a1.93,1.93,0,0,0-.937,1.737c.87,1.073.535,5.693.535,5.693s0,12.78-.628,13.653a33.044,33.044,0,0,0-1.843,3.56s3.587,3.192.764,4.8h-.03c-2.879,1.607-8.834-2.876-8.834-2.876l.621-.621.183-.183-.7-1.05c-.691-1.206,2.019-3.481,2.019-3.481s-.724-2.813-.458-2.946.458-2.677.458-2.677-.664-9.236-.392-10.106a1.362,1.362,0,0,0-.332-1.152,2.866,2.866,0,0,1-.511-1.793,2.132,2.132,0,0,0-.442-1.538c-.8-.87,0-4.616,0-4.616l.664-4.955v-7.868a12.542,12.542,0,0,1,.84-4.44,13.288,13.288,0,0,0,.731-3.564,14.939,14.939,0,0,1,2.5-6.407c.485-.744.847-1.189.847-1.189l21.415-.837s.332.953.691,2.278c.073.289.146.594.216.913.448,2.059.717,4.61-.189,6.044a5.618,5.618,0,0,0-.332.6,10.006,10.006,0,0,0-.389,5.888s-1.069,7.426-1.538,8.635a4.338,4.338,0,0,0,.183,2.657,3.02,3.02,0,0,1,.149.927v2.647a8.054,8.054,0,0,1,.269,2.813C870.9,614.892,871.645,616.563,871.645,616.563Z" transform="translate(-592.788 -407.243)" fill="#444053"/><path d="M924.372,597.174a5.086,5.086,0,0,0-.332.6l-1.206-.066c.116-.621-.7-6.443-.7-6.443l2.428-.136C925.006,593.186,925.278,595.736,924.372,597.174Z" transform="translate(-644.529 -414.089)" opacity="0.1"/><path d="M924.972,596.564a5.62,5.62,0,0,0-.332.6l-1.206-.07c.116-.618-.7-6.443-.7-6.443l2.428-.136C925.609,592.579,925.878,595.13,924.972,596.564Z" transform="translate(-644.929 -413.682)" fill="#444053"/><path d="M924.972,596.564a5.62,5.62,0,0,0-.332.6l-1.206-.07c.116-.618-.7-6.443-.7-6.443l2.428-.136C925.609,592.579,925.878,595.13,924.972,596.564Z" transform="translate(-644.929 -413.682)" opacity="0.05"/><path d="M904.761,767.087a.811.811,0,0,1-.382.332c-.9.379-4.211-1.3-6.1-2.325a1.086,1.086,0,0,1-.5-.6c1.076-.2,1.78,1,1.78,1a1.587,1.587,0,0,1,2.209.535c.92,1.355,2.893.784,2.893.784Z" transform="translate(-628.266 -529.863)" opacity="0.1"/><path d="M888.292,771.61c-.2.6-1.707.6-1.707.6a32.129,32.129,0,0,0-3.9,1.372,2.666,2.666,0,0,1-2.023.286c-2.76.634-6.31-.468-7.38-.687s-1.488-1.6-.166-1.873a2.676,2.676,0,0,0,.495-.153,4.04,4.04,0,0,0,1.661-1.328,33.963,33.963,0,0,1,2.82-2.428,8.244,8.244,0,0,0,1.767-1.79c1.574-1.388,2.693.518,2.693.518a1.588,1.588,0,0,1,2.209.538c.92,1.355,2.893.78,2.893.78s.355.907.521,1.558c.04.166.083.372.123.6A5.488,5.488,0,0,1,888.292,771.61Z" transform="translate(-611.242 -530.284)" fill="#ff748f"/><circle cx="0.183" cy="0.183" r="0.183" transform="translate(272.264 236.729)" fill="#575988"/><circle cx="0.183" cy="0.183" r="0.183" transform="translate(270.693 238.2)" fill="#575988"/><circle cx="0.183" cy="0.183" r="0.183" transform="translate(269.096 239.522)" fill="#575988"/><circle cx="0.183" cy="0.183" r="0.183" transform="translate(269.923 238.931)" fill="#575988"/><circle cx="0.183" cy="0.183" r="0.183" transform="translate(271.514 237.42)" fill="#575988"/><path d="M888.292,780.656c-.2.6-1.707.6-1.707.6a32.129,32.129,0,0,0-3.9,1.372,2.666,2.666,0,0,1-2.023.286c-2.76.634-6.31-.468-7.38-.687s-1.488-1.6-.166-1.873a2.676,2.676,0,0,0,.495-.153,12.849,12.849,0,0,0,3.62.687c2.727.116,4.885,0,4.885,0l2.76-.887a4.612,4.612,0,0,1,1.707-.618,4.464,4.464,0,0,0,1.7-.737A5.211,5.211,0,0,1,888.292,780.656Z" transform="translate(-611.242 -539.331)" fill="#dce6f2"/><path d="M898.868,784.871a2.283,2.283,0,0,1-.458-.043l.04-.2a2.922,2.922,0,0,0,1.661-.232c.246-.1.492-.213.731-.332a9.154,9.154,0,0,1,.873-.379l.272-.093c.149-.053.3-.1.448-.166.083-.033.166-.073.246-.113a2.826,2.826,0,0,1,.618-.236,3.038,3.038,0,0,1,.332-.043,2.954,2.954,0,0,0,.306-.037,2.875,2.875,0,0,0,.581-.216,2.808,2.808,0,0,1,.624-.232l.146-.023a.714.714,0,0,0,.432-.159l.15.136a.9.9,0,0,1-.548.223l-.139.023a2.682,2.682,0,0,0-.581.216,3.044,3.044,0,0,1-.624.229,2.2,2.2,0,0,1-.332.04,2.965,2.965,0,0,0-.312.04,2.66,2.66,0,0,0-.575.223l-.252.116c-.153.063-.312.116-.465.169l-.266.093c-.292.106-.578.242-.857.372s-.492.232-.744.332A3.624,3.624,0,0,1,898.868,784.871Z" transform="translate(-628.686 -541.815)" fill="#575988" opacity="0.5"/><path d="M901.73,685.232a4.968,4.968,0,0,1,3.766-1.993,15.023,15.023,0,0,0,3.394-.269,8.5,8.5,0,0,1-2.574,1.02A44.936,44.936,0,0,0,901.73,685.232Z" transform="translate(-630.904 -475.428)" opacity="0.1"/><path d="M904.15,689.173a5.591,5.591,0,0,1,1.973-.9c.717-.033,1.328-.1,1.328-.1a3.84,3.84,0,0,1-1.1.535C905.761,688.871,904.15,689.173,904.15,689.173Z" transform="translate(-632.52 -478.901)" opacity="0.1"/><path d="M905,693s1.89.149,1.906.664" transform="translate(-633.088 -482.126)" opacity="0.1"/><path d="M851.93,600.88a7.5,7.5,0,0,0,1.906-2.458,1.718,1.718,0,0,1,.734-1.083s1.089.435.12,1.77A5.375,5.375,0,0,1,851.93,600.88Z" transform="translate(-597.643 -418.237)" opacity="0.1"/><path d="M909.8,432.307c-.385.91-.724,1-.664,1.863a6.642,6.642,0,0,1-1.531,1.206c-1.2.711-2.5,2.1-3.985,2.1a7.942,7.942,0,0,1-2.913-.551,5.375,5.375,0,0,0-.95-2.71S911.557,428.179,909.8,432.307Z" transform="translate(-629.588 -307.049)" opacity="0.1"/><path d="M903.382,409.511a7.971,7.971,0,1,1-7.971-7.971,7.971,7.971,0,0,1,7.971,7.971Z" transform="translate(-621.36 -287.465)" fill="#cc818c"/><path d="M911.578,453.136l-2.561,3.813s-12.1,5.772-9.787-1a15.21,15.21,0,0,0,.953-6.682h.02a6.4,6.4,0,0,1,.242,1.538c.036,1.043.063,2.361,2.657,2.8a7.214,7.214,0,0,0,7.028-2.5A12.522,12.522,0,0,0,911.578,453.136Z" transform="translate(-629.038 -319.343)" opacity="0.1"/><path d="M777.1,409.592l-1.6,3.112a6.311,6.311,0,0,1-1.491-.312l-.139-.166c.664.252,2.859-3.916,2.859-3.916l.07.056C776.992,409.094,777.1,409.592,777.1,409.592Z" transform="translate(-545.508 -291.986)" opacity="0.1"/><path d="M883.062,583.188c-5.168,2.245-23.042.332-23.042.332a2.45,2.45,0,0,0,.09-.584c.485-.744.847-1.189.847-1.189l21.415-.837S882.72,581.863,883.062,583.188Z" transform="translate(-603.046 -407.263)" opacity="0.1"/><path d="M817.067,422.527l-2.385,1.02a1.89,1.89,0,0,1-1.7-1.106c-.555-1.152-2.511,0-2.511,0s-5.978-.452-8.183.664c0,0-3.564-1.508-4.065-1.607s-1.255-.5-1.607-.4-.8-.664-1.053-.6-.352-.5-1.156-.7-1.1.05-1.993-.854-8.233-4.467-8.233-4.467l-3.321-2.71-3.514-2.81s-2.209,4.165-2.863,3.912l6.675,8.034s4.819,4.215,8.133,5.57,3.062,1.757,3.062,1.757,10.04,5.121,11.594,5.022,1.262,10.478.6,12.185-1.7,14.055-1.7,14.055-1,2.61.05,4.417a25.26,25.26,0,0,1,0,4.367s17.984,1.923,23.089-.352c0,0,.754-8.333,0-9.386s.7-3.4.7-3.4l3.212-7.177,7.831-7.881s1.2-6.576-4.168-10.79l-3.564-3.165a13.194,13.194,0,0,0-2.577-1.833c-.585-.11-.369,0-.369,0a7.191,7.191,0,0,1-7.094,2.587c-2.584-.435-2.61-1.754-2.657-2.793A6.508,6.508,0,0,0,817.067,422.527Z" transform="translate(-545.916 -292.414)" fill="#67647e"/><path d="M905.611,531.19s-11.046.452-13.251,3.922a10.877,10.877,0,0,1,5.42-.957C900.337,534.558,905.611,531.19,905.611,531.19Z" transform="translate(-624.646 -374.056)" opacity="0.1"/><path d="M895.53,562.561s5.221.352,6.327-.754,1.109-1.757,1.109-1.757Z" transform="translate(-626.763 -393.331)" opacity="0.1"/><path d="M932,499.14s-4.42,5.221.953,7.479Z" transform="translate(-649.979 -352.65)" opacity="0.1"/><path d="M856.69,468.77s1.607,3.278,2.411,3.494Z" transform="translate(-600.822 -332.367)" opacity="0.1"/><path d="M840.37,464.53a59.447,59.447,0,0,0,4.769,3.965S840.971,464.53,840.37,464.53Z" transform="translate(-589.922 -329.535)" opacity="0.1"/><path d="M884.15,454.11s-3.866,5.772-1.355,9.3A12.507,12.507,0,0,1,884.15,454.11Z" transform="translate(-617.691 -322.576)" opacity="0.1"/><path d="M892.745,579.292l-1.182,1.113-.166.153-1.368,1.3c-.1.073-.193.146-.292.213-5.57,3.985-6.686-2.072-6.686-2.072s-2.458,1.607-2.81.3,5.722-3.162,6.642-3.062a1.192,1.192,0,0,0,.242,0,3.8,3.8,0,0,0,1.249-.442l.269-.143q.464-.261.9-.568Z" transform="translate(-616.541 -404.037)" fill="#cc818c"/><path d="M908.49,409.5a7.971,7.971,0,0,1-3.886,6.862,4.533,4.533,0,0,1-.292-.581c-.286-.664-.462-1.382-.751-2.049a6.309,6.309,0,0,0-1.328-1.953.847.847,0,0,0-.355-.246.957.957,0,0,0-.731.2,3.358,3.358,0,0,1-1.113.488,1.182,1.182,0,0,1-1.116-.332,1.669,1.669,0,0,1-.179-1.392,17.34,17.34,0,0,0,.525-3.119,3.052,3.052,0,0,0-1.328-2.717,11.912,11.912,0,0,0-2.717-.591,2.961,2.961,0,0,1-.408-.14,7.971,7.971,0,0,1,13.68,5.566Z" transform="translate(-626.282 -287.457)" opacity="0.1"/><path d="M892.635,396.373c-.143.076-.3.216-.259.375a.379.379,0,0,0,.146.186,3.483,3.483,0,0,0,1.262.648,11.269,11.269,0,0,1,2.72.591,3.078,3.078,0,0,1,1.328,2.717,17.542,17.542,0,0,1-.521,3.115,1.675,1.675,0,0,0,.176,1.395,1.192,1.192,0,0,0,1.116.332,3.322,3.322,0,0,0,1.113-.485.966.966,0,0,1,.734-.206.9.9,0,0,1,.355.246,6.312,6.312,0,0,1,1.328,1.956c.292.664.465,1.378.751,2.049a3.321,3.321,0,0,0,1.328,1.661,1.675,1.675,0,0,0,2.013-.213c.492-.545.452-1.292.684-1.946.4-1.139,1.511-1.853,2.209-2.836a8.917,8.917,0,0,0,1.209-3.833,3.15,3.15,0,0,0,.02-1.282,4.6,4.6,0,0,0-.352-.81c-.777-1.607-.76-3.63-1.993-4.912a5.984,5.984,0,0,0-3.67-1.421,9.457,9.457,0,0,1-3.862-.96,4.2,4.2,0,0,0-1.046-.578.857.857,0,0,0-1.03.385.684.684,0,0,1-.136.279.442.442,0,0,1-.4.023l-1.767-.475.2.89a4.424,4.424,0,0,1-1.876-.332c-.033.5.535.83.711,1.3a1.206,1.206,0,0,1-.332,1.222C894.159,396.1,893.359,395.978,892.635,396.373Z" transform="translate(-624.651 -281.169)" fill="#585268"/><path d="M853.637,760.637l-.073.8h-.03c-2.879,1.607-8.834-2.876-8.834-2.876l.621-.621a1.083,1.083,0,0,1,.272.84l1.216.066,1.455,1.571a27.634,27.634,0,0,0,5,.2Z" transform="translate(-592.814 -525.499)" opacity="0.1"/><path d="M831.2,764.987a69.634,69.634,0,0,1-8.432.389l-3.68.581s-6.31.6-7.011-1.355.551-1.837.551-1.837h.05l2.627-.213a30.058,30.058,0,0,0,4.553-2.175,26.442,26.442,0,0,0,2.727-2.444s1.1-.213,1.076,1.056l1.216.066,1.455,1.574a27.387,27.387,0,0,0,5,.2h.372l-.169,1.943.047.056C831.839,763.134,832.879,764.615,831.2,764.987Z" transform="translate(-570.887 -525.485)" fill="#ff748f"/><circle cx="0.183" cy="0.183" r="0.183" transform="translate(253.344 234.451)" fill="#575988"/><circle cx="0.183" cy="0.183" r="0.183" transform="translate(248.624 236.496)" fill="#575988"/><circle cx="0.183" cy="0.183" r="0.183" transform="translate(246.193 237.234)" fill="#575988"/><circle cx="0.183" cy="0.183" r="0.183" transform="translate(249.863 236.104)" fill="#575988"/><circle cx="0.183" cy="0.183" r="0.183" transform="translate(247.405 236.865)" fill="#575988"/><circle cx="0.183" cy="0.183" r="0.183" transform="translate(251.115 235.523)" fill="#575988"/><circle cx="0.183" cy="0.183" r="0.183" transform="translate(252.354 234.985)" fill="#575988"/><path d="M831.2,774.729a69.634,69.634,0,0,1-8.432.389l-3.68.581s-6.31.6-7.011-1.355.551-1.837.551-1.837h.05a3.378,3.378,0,0,0,2.793,1.142l4.537.183,4.7-.332s4.4-.13,5.121-.282a10.5,10.5,0,0,0,1.754-.644C831.839,772.876,832.879,774.357,831.2,774.729Z" transform="translate(-570.887 -535.227)" fill="#dce6f2"/><path d="M833.194,777.344a2.721,2.721,0,0,1-.744-.093l.053-.193a3.686,3.686,0,0,0,1.866-.083c.223-.06.442-.123.664-.189a10.507,10.507,0,0,1,1.225-.309,10.152,10.152,0,0,1,2.019-.06h.143a31.091,31.091,0,0,0,6.025-.269,2.255,2.255,0,0,0,1.289-.518l.143.143a2.444,2.444,0,0,1-1.4.575,31.249,31.249,0,0,1-6.064.269h-.146a9.991,9.991,0,0,0-1.993.06,9.887,9.887,0,0,0-1.2.3c-.222.066-.445.133-.664.189A5.045,5.045,0,0,1,833.194,777.344Z" transform="translate(-584.633 -537.314)" fill="#575988" opacity="0.5"/><path d="M909.638,579.285l-1.182,1.113-2.936-3.76a10.627,10.627,0,0,0,.9-.568Z" transform="translate(-633.435 -404.031)" opacity="0.1"/><path d="M922.575,493l2.325,3.212v3.364a14.083,14.083,0,0,1,0,7.127l.113,3.112s-1.119,2.86-.717,3.564a5.034,5.034,0,0,1-2.909,3.564,27.353,27.353,0,0,0-5.786,4.9,3.935,3.935,0,0,1-4.268,1.707l-2.962,1.255-3.411-4.367,4.616-2.511s1.607-2.155,2.561-2.056l3.916-4.57s.1-1.455,1.1-1.455c0,0-1.857-1.5-1.206-2.408s.1-4.922.1-4.922Z" transform="translate(-633.061 -348.55)" fill="#67647e"/><path d="M945,536.856s5.271-.1,5.922,1.255S946.591,536.1,945,536.856Z" transform="translate(-659.803 -377.766)" opacity="0.1"/><path d="M905.252,581.71a1.381,1.381,0,0,1-.023.262,1.773,1.773,0,0,1-1.661,1.508h-.093a1.774,1.774,0,0,1-1.773-1.773,1.727,1.727,0,0,1,.1-.575,3.042,3.042,0,0,1-.86-2.491,3.8,3.8,0,0,0,1.249-.442,8.265,8.265,0,0,0,.873,1.783,1.868,1.868,0,0,1,.412-.05A1.777,1.777,0,0,1,905.252,581.71Z" transform="translate(-630.374 -405.453)" opacity="0.1"/><path d="M902.753,577s-1.189.269-1.189.485-.269,2.175,1.036,2.989,1.172-1.123,1.172-1.123S902.65,577.631,902.753,577Z" transform="translate(-630.778 -404.652)" fill="#575988"/><circle cx="1.773" cy="1.773" r="1.773" transform="translate(271.527 174.484)" fill="#e4aab4"/><circle cx="1.521" cy="1.521" r="1.521" transform="translate(271.779 174.736)" fill="#dce6f2"/><path d="M888.325,590.84a8.787,8.787,0,0,0,8.565,1.136v1.508s-3.212,2.209-6.121.87S888.325,590.84,888.325,590.84Z" transform="translate(-621.933 -413.895)" opacity="0.1"/><path d="M888.325,589.63a8.777,8.777,0,0,0,8.565,1.136v1.508s-3.212,2.209-6.121.87S888.325,589.63,888.325,589.63Z" transform="translate(-621.933 -413.087)" opacity="0.1"/><path d="M888.325,589.63a8.777,8.777,0,0,0,8.565,1.136v1.508s-3.212,2.209-6.121.87S888.325,589.63,888.325,589.63Z" transform="translate(-621.933 -413.087)" fill="#444053"/><path d="M888.624,589.63a8.782,8.782,0,0,0,8.568,1.136v1.508s-3.211,2.209-6.124.87S888.624,589.63,888.624,589.63Z" transform="translate(-622.132 -413.087)" opacity="0.05"/><path d="M852.91,757.94s5.022.923,5.756,1.123-.2.551-.2.551S853.883,758.794,852.91,757.94Z" transform="translate(-598.298 -525.499)" opacity="0.1"/><path d="M852.56,744.821c.083,0,3.414-.937,4.132-2.541" transform="translate(-598.064 -515.04)" opacity="0.1"/><path d="M867.19,692.1s1.348,1.774,2.219,1.724S867.98,692.03,867.19,692.1Z" transform="translate(-607.835 -481.522)" opacity="0.1"/><path d="M869.44,701s.568,1.252,1.4.85" transform="translate(-609.338 -487.469)" opacity="0.1"/><path d="M879,617.972l3.56,9.389s.5-6.041-.558-7.848a3.132,3.132,0,0,0-3-1.541Z" transform="translate(-615.723 -432.007)" opacity="0.05"/><g transform="translate(267.695 111.282)" opacity="0.1"><path d="M904.131,393.419l-.03-.136-.571-.153.063.279A4.854,4.854,0,0,0,904.131,393.419Z" transform="translate(-899.801 -393.13)"/><path d="M899.165,396.853l.06-.053a1.2,1.2,0,0,0,.332-1.222,1.611,1.611,0,0,0-.286-.455,4.692,4.692,0,0,1-.824-.242c-.033.5.531.827.707,1.3A1,1,0,0,1,899.165,396.853Z" transform="translate(-896.405 -394.299)"/><path d="M904.556,418.978a3.321,3.321,0,0,1-1.345-1.661c-.282-.664-.458-1.382-.747-2.046a6.31,6.31,0,0,0-1.328-1.956.871.871,0,0,0-.355-.246.97.97,0,0,0-.731.2,3.357,3.357,0,0,1-1.113.488,1.189,1.189,0,0,1-1.116-.332,1.677,1.677,0,0,1-.179-1.395,17.293,17.293,0,0,0,.525-3.115,3.052,3.052,0,0,0-1.328-2.717,11.913,11.913,0,0,0-2.717-.591,3.5,3.5,0,0,1-1.265-.648.606.606,0,0,1-.066-.063,1.659,1.659,0,0,0-.219.1c-.146.076-.3.216-.262.375a.405.405,0,0,0,.15.186,3.457,3.457,0,0,0,1.262.648,11.245,11.245,0,0,1,2.717.591,3.078,3.078,0,0,1,1.328,2.717,17.255,17.255,0,0,1-.525,3.115,1.675,1.675,0,0,0,.179,1.395,1.189,1.189,0,0,0,1.116.332,3.322,3.322,0,0,0,1.113-.485.96.96,0,0,1,.731-.206.879.879,0,0,1,.355.246,6.381,6.381,0,0,1,1.328,1.956c.292.664.465,1.378.751,2.049a3.321,3.321,0,0,0,1.328,1.661,1.642,1.642,0,0,0,1.993-.213,1.559,1.559,0,0,0,.3-.5A1.714,1.714,0,0,1,904.556,418.978Z" transform="translate(-892.301 -400.991)"/><path d="M937.84,435.072c.5-.634,1.162-1.176,1.634-1.84.093-.133.179-.272.259-.412A16.309,16.309,0,0,0,937.84,435.072Z" transform="translate(-922.716 -419.638)"/></g></g></svg>